<svg xmlns="http://www.w3.org/2000/svg" viewBox="0 0 620 150" role="img" aria-labelledby="title desc"><title id="title">iCliGo Travel Partner</title><desc id="desc">Logo iCliGo Travel Partner</desc><rect width="620" height="150" fill="none"/><g transform="translate(12 12)"><rect width="126" height="126" rx="28" fill="#ff6b52"/><path d="M35 39c13-15 39-20 55-8 15 12 18 37 8 54-11 19-36 28-56 18-19-10-27-36-18-55 3-6 7-11 11-9z" fill="#fff" opacity=".18"/><circle cx="45" cy="48" r="10" fill="#fff"/><circle cx="83" cy="61" r="10" fill="#fff"/><circle cx="52" cy="91" r="10" fill="#fff"/><path d="M42 78l20-13 16 22" fill="none" stroke="#fff" stroke-width="8" stroke-linecap="round" stroke-linejoin="round"/><circle cx="91" cy="96" r="7" fill="#fff"/></g><text x="165" y="72" font-family="Arial,Helvetica,sans-serif" font-size="52" font-weight="700" fill="#ff6b52">icligo</text><text x="165" y="116" font-family="Arial,Helvetica,sans-serif" font-size="32" font-weight="400" fill="#ff6b52">travel partner</text></svg>